<?xml version="1.0" standalone="no"?>
<!DOCTYPE svg PUBLIC "-//W3C//DTD SVG 20010904//EN"
 "http://www.w3.org/TR/2001/REC-SVG-20010904/DTD/svg10.dtd">
<svg version="1.0" xmlns="http://www.w3.org/2000/svg"
 width="960.000000pt" height="960.000000pt" viewBox="0 0 960.000000 960.000000"
 preserveAspectRatio="xMidYMid meet">
<metadata>
Created by potrace 1.11, written by Peter Selinger 2001-2013
</metadata>
<g transform="translate(0.000000,960.000000) scale(0.100000,-0.100000)"
fill="#000000" stroke="none">
<path d="M4558 9595 c-2 -2 -48 -6 -103 -9 -55 -4 -116 -8 -135 -11 -19 -2
-60 -7 -90 -10 -30 -4 -66 -8 -80 -10 -14 -2 -47 -6 -74 -10 -27 -3 -52 -8
-55 -9 -3 -2 -28 -7 -56 -10 -27 -4 -57 -9 -65 -11 -8 -2 -31 -7 -50 -10 -19
-3 -53 -11 -75 -17 -22 -5 -51 -12 -65 -14 -126 -21 -528 -148 -705 -223 -259
-110 -426 -191 -612 -300 -456 -265 -890 -623 -1213 -1001 -35 -41 -69 -79
-74 -85 -12 -11 -71 -87 -163 -210 -65 -86 -193 -272 -193 -279 0 -3 -13 -24
-29 -48 -46 -69 -134 -224 -199 -353 -271 -534 -426 -1060 -497 -1680 -27
-239 -27 -753 0 -990 3 -22 7 -60 10 -85 3 -25 7 -58 10 -75 3 -16 7 -48 10
-69 3 -21 7 -48 10 -60 2 -12 7 -37 10 -56 2 -19 7 -46 10 -60 2 -14 7 -38 11
-55 113 -575 353 -1161 680 -1660 73 -112 165 -246 174 -255 3 -3 41 -50 84
-105 70 -88 159 -194 206 -245 667 -730 1531 -1239 2465 -1453 122 -28 124
-29 275 -57 226 -43 502 -65 830 -64 226 0 316 3 480 19 96 10 333 43 360 50
8 3 32 7 54 11 45 7 39 5 186 39 260 59 609 176 865 290 103 46 328 161 441
226 100 57 375 236 434 281 206 160 313 248 400 328 131 121 297 291 390 400
35 41 69 80 74 85 13 11 77 94 163 210 151 203 301 446 422 685 67 131 96 195
172 375 76 180 201 575 223 705 2 14 11 52 19 85 8 33 18 80 22 105 3 25 12
79 20 120 8 41 17 100 20 130 3 30 8 71 10 90 35 259 40 789 10 1040 -2 19 -7
55 -10 80 -3 25 -8 65 -11 90 -3 25 -12 83 -20 130 -8 47 -19 109 -24 138 -5
30 -12 61 -14 70 -5 18 -9 34 -26 117 -5 28 -17 73 -25 100 -35 121 -76 261
-78 272 -2 7 -6 16 -10 19 -4 4 -7 14 -7 21 0 8 -23 76 -51 151 -138 368 -313
706 -527 1022 -71 104 -192 271 -212 290 -3 3 -17 21 -32 42 -15 20 -33 42
-40 50 -7 7 -40 45 -73 83 -79 93 -363 379 -429 433 -29 24 -63 53 -77 65 -13
12 -46 40 -74 62 -27 22 -52 43 -55 46 -19 21 -211 159 -340 244 -428 281
-838 468 -1345 615 -60 18 -121 34 -135 36 -14 3 -33 7 -42 10 -10 3 -30 7
-45 10 -16 3 -44 9 -63 14 -70 19 -276 54 -375 65 -27 3 -57 7 -65 10 -8 2
-53 7 -100 10 -47 4 -98 9 -115 12 -32 5 -593 12 -597 8z"/>
</g>
</svg>
